<svg id="Calque_1" data-name="Calque 1" xmlns="http://www.w3.org/2000/svg" viewBox="0 0 39 70"><defs><style>.cls-1{fill:#fff;}</style></defs><title>alert</title><path d="M31.42,3a3.86,3.86,0,0,1,3.85,3.85v56.3A3.86,3.86,0,0,1,31.42,67H7.58a3.86,3.86,0,0,1-3.85-3.85V6.85A3.86,3.86,0,0,1,7.58,3H31.42m0-1H7.58A4.86,4.86,0,0,0,2.73,6.85v56.3A4.86,4.86,0,0,0,7.58,68H31.42a4.86,4.86,0,0,0,4.85-4.85V6.85A4.86,4.86,0,0,0,31.42,2Z"/><path class="cls-1" d="M19.5,62.09a4.91,4.91,0,1,1,4.91-4.91A4.91,4.91,0,0,1,19.5,62.09Z"/><path d="M19.5,52.77a4.41,4.41,0,1,1-4.41,4.41,4.42,4.42,0,0,1,4.41-4.41m0-1a5.41,5.41,0,1,0,5.41,5.41,5.41,5.41,0,0,0-5.41-5.41Z"/><path d="M8.26,56.64a11.15,11.15,0,0,1,2-6.44,3,3,0,0,0,.52-1.76V48a12.29,12.29,0,0,0,0,17.32v-.47a3,3,0,0,0-.52-1.75A11.17,11.17,0,0,1,8.26,56.64Z"/><path d="M28.19,48v.49a3,3,0,0,0,.5,1.71,11.2,11.2,0,0,1,0,12.92,3,3,0,0,0-.5,1.71v.49a12.29,12.29,0,0,0,0-17.32Z"/><path d="M11.07,56.64A8.39,8.39,0,0,1,13,51.29V50.15a9.17,9.17,0,0,0,0,13V62A8.34,8.34,0,0,1,11.07,56.64Z"/><path d="M26,50.15v1.14A8.4,8.4,0,0,1,26,62v1.15a9.17,9.17,0,0,0,0-13Z"/><rect x="5.63" y="4.7" width="4.87" height="2.16" rx="1"/></svg>