<svg id="Calque_1" data-name="Calque 1" xmlns="http://www.w3.org/2000/svg" viewBox="0 0 24 24"><defs><style>.cls-1{fill:#fff;}</style></defs><title>alert_Plan de travail 1</title><path class="cls-1" d="M12,17.08a4.58,4.58,0,1,1,4.57-4.57A4.58,4.58,0,0,1,12,17.08Z"/><path d="M12,8.43a4.08,4.08,0,1,1-4.07,4.08A4.08,4.08,0,0,1,12,8.43m0-1a5.08,5.08,0,1,0,5.07,5.08A5.08,5.08,0,0,0,12,7.43Z"/><path d="M1.46,12A10.4,10.4,0,0,1,3.37,6a2.89,2.89,0,0,0,.48-1.64V3.88a11.52,11.52,0,0,0,0,16.24v-.44A2.89,2.89,0,0,0,3.37,18,10.4,10.4,0,0,1,1.46,12Z"/><path d="M20.15,3.88v.46a2.73,2.73,0,0,0,.47,1.6,10.52,10.52,0,0,1,0,12.12,2.73,2.73,0,0,0-.47,1.6v.46a11.52,11.52,0,0,0,0-16.24Z"/><path d="M4.09,12a7.87,7.87,0,0,1,1.8-5V5.91a8.64,8.64,0,0,0,0,12.18V17A7.87,7.87,0,0,1,4.09,12Z"/><path d="M18.11,5.91V7a7.87,7.87,0,0,1,0,10v1.08a8.64,8.64,0,0,0,0-12.18Z"/></svg>