<svg id="Calque_1" data-name="Calque 1" xmlns="http://www.w3.org/2000/svg" viewBox="0 0 109 109"><defs><style>.cls-1{fill:#d3d3d3;}</style></defs><title>forge</title><rect x="-0.5" y="-1.5" width="111" height="111"/><polygon class="cls-1" points="77.93 38.81 54.83 38.81 54.83 46.13 74.44 46.13 77.93 38.81"/><rect class="cls-1" x="55.11" y="53.08" width="21.63" height="7.33"/><rect class="cls-1" x="54.99" y="62.81" width="21.63" height="7.33"/><path class="cls-1" d="M27.93,54.63a33.73,33.73,0,0,0,.35,4.07,13.83,13.83,0,0,0,1.08,3.66,14.41,14.41,0,0,0,2,3.24,13.21,13.21,0,0,0,2.7,2.48,9.23,9.23,0,0,0,3.16,1.43c.88.21,1.61.37,2.17.47a7.06,7.06,0,0,0,1.19.16H54V53.05H28C28,53.56,27.93,54.09,27.93,54.63ZM36,60.93a2,2,0,0,1,2-2h7.47a2,2,0,0,1,2,2v.12a2,2,0,0,1-2,2H38a2,2,0,0,1-2-2Z"/><path class="cls-1" d="M54,38.8H41.8A13.6,13.6,0,0,0,36.12,40a12.66,12.66,0,0,0-4.37,3.25,14,14,0,0,0-1.83,2.73H54Z"/></svg>