<svg id="Calque_1" data-name="Calque 1" xmlns="http://www.w3.org/2000/svg" viewBox="0 0 109 109"><defs><style>.cls-1{fill:#fff;}</style></defs><title>vs-shield</title><rect x="-2.5" y="-3" width="114" height="115"/><polygon class="cls-1" points="83.96 44.46 83.96 33.5 75.23 33.5 68.91 44.46 83.96 44.46"/><path class="cls-1" d="M63.41,58.16h8.22A1.35,1.35,0,0,1,73,59.53a1.37,1.37,0,0,1-1.37,1.37H59.42l-6.33,11H71.63A12.36,12.36,0,0,0,84,59.53,12.36,12.36,0,0,0,71.63,47.2h-4.3L61.12,58A13.1,13.1,0,0,0,63.41,58.16Z"/><polygon class="cls-1" points="60.88 33.5 60.64 33.91 50.4 51.66 49.29 53.58 37.7 33.5 25.04 33.5 49.29 75.5 51.17 72.24 57.5 61.28 59.19 58.34 65.41 47.58 66.99 44.84 73.31 33.88 73.53 33.5 60.88 33.5"/></svg>