<svg id="Calque_1" data-name="Calque 1" xmlns="http://www.w3.org/2000/svg" viewBox="0 0 109 109"><defs><style>.cls-1{fill:#d3d3d3;}</style></defs><title>favicon</title><polygon class="cls-1" points="103.95 23.53 58.25 23.53 58.25 38.01 97.06 38.01 103.95 23.53"/><rect class="cls-1" x="58.81" y="51.75" width="42.78" height="14.49"/><rect class="cls-1" x="58.57" y="71.01" width="42.78" height="14.49"/><path class="cls-1" d="M5.05,54.81a64,64,0,0,0,.7,8.06,27.11,27.11,0,0,0,2.13,7.25,28,28,0,0,0,4,6.39,26,26,0,0,0,5.35,4.92,18.6,18.6,0,0,0,6.24,2.83c1.75.41,3.19.72,4.3.93a14.63,14.63,0,0,0,2.36.31h26.5V51.68H5.16C5.09,52.71,5.05,53.75,5.05,54.81ZM21,67.29a3.89,3.89,0,0,1,3.88-3.87H39.65a3.89,3.89,0,0,1,3.88,3.87v.23a3.89,3.89,0,0,1-3.88,3.87H24.88A3.89,3.89,0,0,1,21,67.52Z"/><path class="cls-1" d="M56.58,23.5H32.48a26.74,26.74,0,0,0-11.23,2.29,25.08,25.08,0,0,0-8.65,6.43A28.22,28.22,0,0,0,9,37.61H56.66Z"/></svg>