<svg id="Calque_1" data-name="Calque 1" xmlns="http://www.w3.org/2000/svg" viewBox="0 0 300 100"><defs><style>.cls-1{fill:#333;}</style></defs><title>forge</title><polygon class="cls-1" points="55.79 32 55.75 16.02 5.01 16.02 5.01 84.02 22.01 84.02 22.01 58.01 48.19 58.01 48.19 41.94 22.01 41.94 22.01 32 55.79 32"/><path class="cls-1" d="M109.83,28a27.88,27.88,0,0,0-9.52-6.42,32.18,32.18,0,0,0-12.37-2.3,34,34,0,0,0-12.66,2.3A29.36,29.36,0,0,0,65.37,28,28.5,28.5,0,0,0,59,37.69a32.63,32.63,0,0,0-2.3,12.4,33.17,33.17,0,0,0,2.25,12.45,28.65,28.65,0,0,0,6.34,9.68A28.1,28.1,0,0,0,75,78.51,34.17,34.17,0,0,0,87.6,80.74a32.74,32.74,0,0,0,12.5-2.3A28.58,28.58,0,0,0,109.74,72,28.24,28.24,0,0,0,116,62.27a34.28,34.28,0,0,0,2.16-12.33A33.72,33.72,0,0,0,116,37.72,29.05,29.05,0,0,0,109.83,28ZM102,56.81a17,17,0,0,1-3.19,5.42,14.81,14.81,0,0,1-11.22,5,14.05,14.05,0,0,1-6.08-1.3,14.47,14.47,0,0,1-4.76-3.58A16.46,16.46,0,0,1,73.66,57a19.56,19.56,0,0,1-1.1-6.69,21.83,21.83,0,0,1,1.06-7,16,16,0,0,1,3.06-5.49,13.54,13.54,0,0,1,4.84-3.57A15.34,15.34,0,0,1,87.86,33a14.26,14.26,0,0,1,6.2,1.34A15.31,15.31,0,0,1,98.91,38a16.52,16.52,0,0,1,3.14,5.42,19.61,19.61,0,0,1,1.11,6.64A19.35,19.35,0,0,1,102,56.81Z"/><path class="cls-1" d="M166.39,59.62a1.4,1.4,0,0,1,.34-.25,29.36,29.36,0,0,0,5.78-3.45,17.09,17.09,0,0,0,4.08-4.46A18.77,18.77,0,0,0,179,45.68a32.2,32.2,0,0,0,.77-7.39,24.3,24.3,0,0,0-1.49-8.46,23.87,23.87,0,0,0-4-7.1,19.55,19.55,0,0,0-6.07-4.89A16.43,16.43,0,0,0,160.53,16H124V84H140V49.93L162.4,84h18.27L165.88,60A1.87,1.87,0,0,0,166.39,59.62ZM164,41.22a8.59,8.59,0,0,1-1.27,2.25,7.71,7.71,0,0,1-1.87,1.7,4,4,0,0,1-2.17.68H140v-14h18A5.88,5.88,0,0,1,162.57,34a7.27,7.27,0,0,1,1.87,4.93A6.63,6.63,0,0,1,164,41.22Z"/><polygon class="cls-1" points="294.99 16.02 244.84 16.02 244.84 31.91 287.43 31.91 294.99 16.02"/><rect class="cls-1" x="245.45" y="46.99" width="46.94" height="15.9"/><rect class="cls-1" x="245.2" y="68.11" width="46.94" height="15.9"/><path class="cls-1" d="M186.47,50.34a70.75,70.75,0,0,0,.76,8.84,29.82,29.82,0,0,0,2.34,7.95,30.72,30.72,0,0,0,4.34,7,28.51,28.51,0,0,0,5.86,5.4,20.33,20.33,0,0,0,6.85,3.1c1.93.46,3.5.8,4.72,1a16.41,16.41,0,0,0,2.59.35H243V46.91H186.59C186.51,48,186.47,49.17,186.47,50.34ZM204,64a4.27,4.27,0,0,1,4.25-4.25h16.22A4.27,4.27,0,0,1,228.69,64v.26a4.27,4.27,0,0,1-4.25,4.25H208.22A4.27,4.27,0,0,1,204,64.29Z"/><path class="cls-1" d="M243,16H216.57a29.5,29.5,0,0,0-12.33,2.51,27.46,27.46,0,0,0-9.48,7.06,30.89,30.89,0,0,0-4,5.91H243.1Z"/></svg>