<svg id="Calque_1" data-name="Calque 1" xmlns="http://www.w3.org/2000/svg" viewBox="0 0 205 146"><defs><style>.cls-1{fill:#fff;}</style></defs><title>ge</title><polygon class="cls-1" points="202.23 10.54 110.06 10.54 110.06 39.75 188.32 39.75 202.23 10.54"/><rect class="cls-1" x="111.18" y="67.46" width="86.27" height="29.23"/><rect class="cls-1" x="110.71" y="106.29" width="86.27" height="29.23"/><path class="cls-1" d="M2.77,73.62A130.4,130.4,0,0,0,4.18,89.88a54.48,54.48,0,0,0,4.3,14.61,56.5,56.5,0,0,0,8,12.89,52.47,52.47,0,0,0,10.78,9.93A37.33,37.33,0,0,0,39.82,133c3.54.84,6.43,1.46,8.67,1.88a30.08,30.08,0,0,0,4.76.63H106.7V67.32H3C2.85,69.38,2.77,71.48,2.77,73.62ZM35,98.79A7.83,7.83,0,0,1,42.76,91h29.8a7.83,7.83,0,0,1,7.81,7.81v.47a7.83,7.83,0,0,1-7.81,7.81H42.76A7.83,7.83,0,0,1,35,99.26Z"/><path class="cls-1" d="M106.7,10.48H58.1A54.09,54.09,0,0,0,35.44,15.1,50.39,50.39,0,0,0,18,28.07a56.07,56.07,0,0,0-7.3,10.86h96.15Z"/></svg>