<svg id="Calque_1" data-name="Calque 1" xmlns="http://www.w3.org/2000/svg" viewBox="0 0 658 213"><defs><style>.cls-1{fill:#fff;}</style></defs><title>logo-dark</title><path class="cls-1" d="M228.14,119.65V158.6H197v-109h31.16v39h38.95V49.55h31.16V158.6H267.09V119.65Z"/><path class="cls-1" d="M399.52,49.55V80.71H337.2V88.5h46.74v31.15H337.2v7.79h62.32V158.6H306v-109Z"/><path class="cls-1" d="M438.47,158.6H407.31v-109h31.16Z"/><path class="cls-1" d="M477.41,127.44h54.53V158.6H446.25v-109h31.16Z"/><path class="cls-1" d="M586.47,49.55a52.53,52.53,0,0,1,38.56,16,52.5,52.5,0,0,1,16,38.55,52.5,52.5,0,0,1-16,38.56,52.53,52.53,0,0,1-38.56,16H539.73v-109Zm0,77.89a23.39,23.39,0,0,0,23.37-23.37,23.39,23.39,0,0,0-23.37-23.36H570.89v46.73Z"/><polygon class="cls-1" points="190.21 76.98 190.21 44.76 164.56 44.76 145.96 76.98 190.21 76.98"/><path class="cls-1" d="M129.8,117.25H154a4,4,0,1,1,0,8.06h-35.9l-18.6,32.22H154a36.33,36.33,0,0,0,36.25-36.25A36.31,36.31,0,0,0,154,85H141.31l-18.26,31.63A39.07,39.07,0,0,0,129.8,117.25Z"/><polygon class="cls-1" points="122.35 44.76 121.65 45.98 91.54 98.16 88.28 103.8 54.21 44.76 17 44.76 88.28 168.24 93.81 158.66 112.41 126.44 117.4 117.8 135.66 86.17 140.31 78.11 158.91 45.89 159.56 44.76 122.35 44.76"/></svg>