<svg id="Calque_1" data-name="Calque 1" xmlns="http://www.w3.org/2000/svg" viewBox="0 0 658 213"><defs><style>.cls-1{fill:none;stroke:#ffffff;stroke-miterlimit:10;stroke-width:4px;}.text-path{fill:#ffffff;}</style></defs><title>vs-shield-dark</title><path class="text-path" d="M192.32,151.47v-25.7H240.5a3.21,3.21,0,1,0,0-6.42H221.22a29,29,0,0,1-28.9-28.91,29,29,0,0,1,28.9-28.91H269.4v25.7H221.22a3.21,3.21,0,1,0,0,6.42H240.5a29,29,0,0,1,28.9,28.91,29,29,0,0,1-28.9,28.91Z"/><path class="text-path" d="M301.52,119.35v32.12H275.83V61.53h25.69V93.65h32.13V61.53h25.69v89.94H333.65V119.35Z"/><path class="text-path" d="M442.85,61.53v25.7H391.46v6.42H430v25.7H391.46v6.42h51.39v25.7H365.77V61.53Z"/><path class="text-path" d="M475,151.47H449.28V61.53H475Z"/><path class="text-path" d="M507.09,125.77h45v25.7H481.4V61.53h25.69Z"/><path class="text-path" d="M597,61.53a45,45,0,0,1,45,45,45,45,0,0,1-45,45H558.49V61.53Zm0,64.24a19.26,19.26,0,0,0,13.62-32.89A18.56,18.56,0,0,0,597,87.23H584.18v38.54Z"/><polygon class="text-path" points="165.24 82.16 165.24 55.59 144.09 55.59 128.75 82.16 165.24 82.16"/><path class="text-path" d="M115.42,115.37h19.93a3.32,3.32,0,1,1,0,6.64h-29.6L90.41,148.58h44.94a29.94,29.94,0,0,0,29.89-29.89A29.94,29.94,0,0,0,135.35,88.8H124.92l-15.06,26.09A32.49,32.49,0,0,0,115.42,115.37Z"/><polygon class="text-path" points="109.28 55.59 108.71 56.59 83.88 99.62 81.19 104.28 53.09 55.59 22.4 55.59 81.19 157.41 85.75 149.51 101.09 122.94 105.2 115.82 120.26 89.73 124.1 83.09 139.43 56.52 139.97 55.59 109.28 55.59"/><rect class="cls-1" x="16" y="33.94" width="156.86" height="145.12" rx="15.82"/></svg>