<svg id="Calque_1" data-name="Calque 1" xmlns="http://www.w3.org/2000/svg" viewBox="0 0 109 109"><defs><style>.cls-1{fill:#fff;}</style></defs><title>vs</title><rect x="-2.5" y="-3.5" width="114" height="115"/><path class="cls-1" d="M32.48,67.21a6.35,6.35,0,0,0,8.68,2.34h0l1-.55a19,19,0,0,0,6,3.48v1.09a6.36,6.36,0,0,0,12.72,0V72.48a19,19,0,0,0,6-3.48l1,.54a6.36,6.36,0,0,0,6.36-11h0L73.26,58a19.44,19.44,0,0,0,0-7l.94-.54a6.36,6.36,0,1,0-6.36-11L66.9,40a19,19,0,0,0-6-3.47V35.43a6.36,6.36,0,0,0-12.72,0v1.09a19,19,0,0,0-6,3.48l-1-.55a6.36,6.36,0,0,0-6.36,11h0l.94.55a19.44,19.44,0,0,0,0,7l-.94.54A6.37,6.37,0,0,0,32.48,67.21ZM54.5,46A8.48,8.48,0,1,1,46,54.5,8.48,8.48,0,0,1,54.5,46Z"/></svg>