<svg id="Calque_1" data-name="Calque 1" xmlns="http://www.w3.org/2000/svg" viewBox="0 0 109 109"><defs><style>.cls-1{fill:#fff;}</style></defs><title>vs</title><rect x="-2.5" y="-3" width="114" height="115"/><path class="cls-1" d="M74.51,42.2a16.57,16.57,0,0,0-6.94-4.26l-.06.09-4.9,8.49-.24.42h.1a7.3,7.3,0,0,1,0,14.59,7,7,0,0,1-5.15-2.14,7.2,7.2,0,0,1-1.22-1.58l-.83,1.44-4.34,7.51a17,17,0,0,0,23.58-.48,17,17,0,0,0,0-24.08Z"/><polygon class="cls-1" points="66.19 37.74 57.48 37.74 57.25 37.74 57.2 37.81 57.06 38.06 49.13 51.8 48.27 53.28 45.66 48.76 39.3 37.74 29.5 37.74 48.27 70.25 49.73 67.73 50.29 66.75 54.63 59.25 55.46 57.81 55.94 56.97 60.75 48.64 61.73 46.95 61.98 46.52 66.87 38.03 66.93 37.94 67.05 37.74 66.19 37.74"/></svg>